<svg xmlns="http://www.w3.org/2000/svg" width="128" height="128" viewBox="0 0 128 128">
  <title>GHOST</title>
  <g>
    <path d="M109.916,51.559h0a7.385,7.385,0,0,0-9.879-3.347l-4.62,2.282V44.7a26.938,26.938,0,0,0-53.876,0v5.775l-4.585-2.265a7.375,7.375,0,0,0-6.531,13.226l11.116,5.49V92.369a1.752,1.752,0,0,0,.946,1.555,4.868,4.868,0,0,1,1.327,1.433c.926,1.265,2.194,3,4.748,3s3.82-1.736,4.744-3c.828-1.136,1.208-1.566,1.916-1.566s1.087.43,1.915,1.566c.924,1.268,2.188,3,4.744,3s3.819-1.736,4.742-3c.828-1.136,1.207-1.566,1.915-1.566s1.087.43,1.915,1.566c.923,1.268,2.189,3,4.743,3s3.821-1.737,4.744-3c.828-1.136,1.206-1.566,1.914-1.566s1.087.43,1.916,1.566c.923,1.268,2.188,3,4.744,3s3.821-1.734,4.747-3a5.171,5.171,0,0,1,1.276-1.407,1.75,1.75,0,0,0,.88-1.518V66.944l11.151-5.507A7.384,7.384,0,0,0,109.916,51.559Zm-4.9,6.739L92.892,64.287a1.75,1.75,0,0,0-.975,1.569V91.548a10.571,10.571,0,0,0-1.483,1.742c-.83,1.136-1.21,1.565-1.92,1.565s-1.088-.429-1.916-1.565c-.924-1.269-2.189-3.005-4.744-3.005s-3.82,1.736-4.743,3.005c-.828,1.136-1.207,1.565-1.915,1.565s-1.087-.429-1.915-1.565c-.923-1.269-2.188-3.005-4.743-3.005s-3.82,1.737-4.744,3.005c-.827,1.136-1.206,1.565-1.913,1.565s-1.088-.429-1.916-1.565c-.924-1.269-2.189-3.005-4.743-3.005S51.4,92.021,50.478,93.29c-.829,1.136-1.208,1.565-1.916,1.565s-1.091-.428-1.922-1.564a10.178,10.178,0,0,0-1.6-1.841V65.839a1.749,1.749,0,0,0-.975-1.569L31.975,58.3a3.874,3.874,0,0,1,3.431-6.948l7.11,3.511a1.75,1.75,0,0,0,2.525-1.569V44.7a23.438,23.438,0,0,1,46.876,0V53.31a1.75,1.75,0,0,0,2.525,1.569l7.145-3.529a3.875,3.875,0,1,1,3.432,6.948Z"/>
    <path d="M78.131,37.284a5.521,5.521,0,1,0,5.521,5.522A5.528,5.528,0,0,0,78.131,37.284Zm0,7.542a2.021,2.021,0,1,1,2.021-2.02A2.024,2.024,0,0,1,78.131,44.826Z"/>
    <path d="M68.5,52.933c-4.3,0-7.661,4.643-7.661,10.571S64.2,74.075,68.5,74.075s7.661-4.643,7.661-10.571S72.793,52.933,68.5,52.933Zm0,17.642c-2.217,0-4.161-3.3-4.161-7.071s1.944-7.071,4.161-7.071,4.161,3.3,4.161,7.071S70.714,70.575,68.5,70.575Z"/>
    <path d="M64.385,42.806a5.522,5.522,0,1,0-5.522,5.52A5.528,5.528,0,0,0,64.385,42.806Zm-5.522,2.02a2.021,2.021,0,1,1,2.022-2.02A2.023,2.023,0,0,1,58.863,44.826Z"/>
  </g>
</svg>
