<?xml version="1.0" encoding="utf-8"?>
<!-- Generator: Adobe Illustrator 24.3.0, SVG Export Plug-In . SVG Version: 6.00 Build 0)  -->
<svg version="1.1" id="Layer_1" xmlns="http://www.w3.org/2000/svg" xmlns:xlink="http://www.w3.org/1999/xlink" x="0px" y="0px"
	 viewBox="0 0 180 180" enable-background="new 0 0 180 180" xml:space="preserve">
<g>
	<path fill="#C8C9CF" d="M122.776,87.292c0-21.343-14.674-38.646-32.776-38.646c-18.102,0-32.776,17.303-32.776,38.646
		c0,6.664,1.43,12.933,3.949,18.405c-0.888,1.937-1.386,4.107-1.386,6.398c0,8.18,6.338,14.811,14.156,14.811
		c2.708,0,5.239-0.797,7.39-2.177c2.202,3.959,6.299,6.623,10.993,6.623c4.735,0,8.862-2.71,11.05-6.727
		c1.652,0.799,3.491,1.248,5.431,1.248c7.158,0,12.962-6.072,12.962-13.562c0-2.931-0.891-5.642-2.402-7.86
		C121.545,99.282,122.776,93.458,122.776,87.292z"/>
	<path fill="#F4F7FA" d="M90,48.647c-18.102,0-32.776,17.303-32.776,38.646c0,6.664,1.43,12.933,3.949,18.405
		c-0.888,1.937-1.386,4.107-1.386,6.398c0,8.18,6.338,14.811,14.156,14.811c2.708,0,5.239-0.797,7.39-2.177
		c1.829,3.288,4.967,5.677,8.666,6.394V48.647z"/>
	<path fill="#3A6F81" d="M86.559,75.552c0,3.782-3.066,6.849-6.849,6.849c-3.782,0-6.848-3.067-6.848-6.849
		c0-3.782,3.066-6.849,6.848-6.849C83.493,68.703,86.559,71.77,86.559,75.552z"/>
	<path fill="#346273" d="M107.138,75.552c0,3.782-3.066,6.849-6.848,6.849c-3.783,0-6.849-3.067-6.849-6.849
		c0-3.782,3.066-6.849,6.849-6.849C104.072,68.703,107.138,71.77,107.138,75.552z"/>
</g>
</svg>
